<svg id="Capa_1" data-name="Capa 1" xmlns="http://www.w3.org/2000/svg" viewBox="0 0 558.61 558.28"><defs><style>.cls-1{fill:#cc9967;}.cls-2{fill:#fbcc9b;}.cls-3{fill:#e2b083;}.cls-18,.cls-4{fill:#010101;}.cls-5{fill:#da3d8e;}.cls-6{fill:#8e2545;}.cls-7{fill:#e72580;}.cls-8{fill:#e72380;}.cls-9{fill:#ea4a87;}.cls-10{fill:#ea4f96;}.cls-11{fill:#f08aa7;}.cls-12{fill:#b44d97;}.cls-13{fill:#f9dac0;}.cls-14{fill:#fbdceb;}.cls-15{fill:#26295d;}.cls-16{fill:#13162a;}.cls-17{fill:#10131e;}.cls-18{stroke:#010101;stroke-miterlimit:10;stroke-width:0.25px;}.cls-19{opacity:0.1;}.cls-20{fill:#8f4e5d;}.cls-21{fill:#fdfada;}.cls-22{fill:#a95a5d;}.cls-23{fill:#2b4c9c;}.cls-24{fill:#024875;}</style></defs><path class="cls-1" d="M531.59,272.18s5.08-2.14,8.81-10.72c0,0,8.49-7.61,11.89-33.65s-10.63,12.46-10.63,12.46l-10.07,31.91" transform="translate(-121.95 -27)"/><path class="cls-2" d="M354.28,252.93c46.44,114.33,142.11,76.63,137.52,75.72s-7.31,24.06-7.31,24.06l-4,28c-.3,1.72,1.93,20.74,1.93,20.74l1.45,1.45c1.45,1.44,0,19.28,0,19.28-2.41,1.93-1.93,63.66-1.93,63.66-32.31,43.88-78.6,37.61-78.6,37.61C333.4,520,326.65,434.2,326.65,434.2c1.93-4.82,10.12-43.88,10.12-43.88,7.24-17.36,5.79-19.77,5.79-19.77,0-10.61,7.71-25.24,7.71-25.24,8.68-36.8,4-92.38,4-92.38" transform="translate(-121.95 -27)"/><path class="cls-3" d="M387.15,320.23,492,329s-4.5-.78-7.31,24.06c0,0,.65,22.66,3.67,49.06,0,0-.26,20.06-4.94,27,0,0-28.34,81.83-69.87,68.69,0,0-40.15-18.32-13.16-74.74,0,0,19-24.16,7.83-35.05s-17-13.41-12.66-31.5-8.37-36.33-8.37-36.33" transform="translate(-121.95 -27)"/><path class="cls-4" d="M326.65,434.2s6.51,86.8,76.67,89.21c0,0,42.55,7.72,78.6-37.61h0l7.72,94.67H307.12L302.78,536s-5.07-70.41,23.87-101.75" transform="translate(-121.95 -27)"/><path class="cls-5" d="M352.31,334.92s-35.12,32.49-34,34.66c0,0-35.78,18.68-31.44,18.74,0,0-7.23-10.06-54.25,21.05,0,0-27.48-10.13-39.78,17.36,0,0-50.4,43.85-62,105.84-3.26,17.43-12.74,39.84-7.24,47.9,4.19,6.14,50.24,3.7,69.2,0,7.66-1.49,114.29,11.52,114.29,0h0L302.78,536,326.65,434.2l10.12-43.88s4.69-11.83,5.79-19.77.28-3.66.28-3.66Z" transform="translate(-121.95 -27)"/><path class="cls-5" d="M484.49,352.71s-7.87,31.93-2.09,48.87c0,0,3.12-.46,1.45,20.81,0,0-5.31,52.25-1.93,63.87,0,0,3.86,92.74,7.72,95L674,580.92a6,6,0,0,0,4.36-1.89h0a7.73,7.73,0,0,0,2.09-4.78c.24-3.62.37-9.86-1.27-13.48,0,0-1-6.77,0-7.74,0,0-20.74-115.64-30.87-119.52,0,0-12.53-21.77-28.93-26.12,0,0-4.82,2.9-5.79.48,0,0,0-8.23-4.33-5.81,0,0-7.24-1.93-7.24-3.38v-1.46s-19.29-9.8-25.07-8.77-6.27-6.23-35.21-14.94c0,0-20.25-11.13-44.36-11.61C497.35,361.9,485.29,349.15,484.49,352.71Z" transform="translate(-121.95 -27)"/><path class="cls-6" d="M570.9,501.71s10.5,5.63,12.35,10.61c0,0,7.69,19.61-30.42,68.15H522.37S558.55,491.1,570.9,501.71Z" transform="translate(-121.95 -27)"/><path class="cls-7" d="M570.89,501.71c1-13.5-74.26-140.32-74.26-140.32h0s-12.07-12.71-12.86-9.16c0,0-7.88,31.82-2.09,48.7,0,0,3.12-.45,1.45,20.74,0,0-5.31,52.08-1.93,63.65,0,0,3.85,92.42,7.71,94.68l34,.47,48-78.76" transform="translate(-121.95 -27)"/><path class="cls-8" d="M352.31,334.92s-127.41,144.61-124,148c0,0,13.51,47.06,55,102.38l23.87-4.81L302.78,536s22.05-73.75,29.29-124.86a121.7,121.7,0,0,0,4.7-20.77s4.26-9.33,4.7-12.78l.43-3.44A190.52,190.52,0,0,0,352.31,334.92Z" transform="translate(-121.95 -27)"/><path class="cls-6" d="M232.61,409.37s-7.59,6.51,2.17,18.08A28.41,28.41,0,0,1,232.61,409.37Z" transform="translate(-121.95 -27)"/><path class="cls-6" d="M288.93,406.41a28.43,28.43,0,0,1-2.17-18.09s-7.59,6.51,2.17,18.09" transform="translate(-121.95 -27)"/><path class="cls-6" d="M185.05,535.47s-8.84,30.76,0,46.14C185.05,581.61,182.64,572.82,185.05,535.47Z" transform="translate(-121.95 -27)"/><path class="cls-9" d="M232.61,409.37s-31.82-9.41-39.78,17.36c0,0-31.74,33.49-40.86,51C152,477.77,227.31,426,232.61,409.37Z" transform="translate(-121.95 -27)"/><path class="cls-9" d="M286.76,388.32s-21.84-7.83-41.13,21.44C245.63,409.76,278.7,402.24,286.76,388.32Z" transform="translate(-121.95 -27)"/><path class="cls-6" d="M653.73,442.77s-3,41.24-41.61,81C612.12,523.72,656.77,489.91,653.73,442.77Z" transform="translate(-121.95 -27)"/><path class="cls-6" d="M496.63,361.39s65.52,51.95,79.9,45Z" transform="translate(-121.95 -27)"/><path class="cls-6" d="M596.69,507.34s22.66,69.92,13.26,73.13C610,580.47,611.15,583.37,596.69,507.34Z" transform="translate(-121.95 -27)"/><path class="cls-10" d="M647.35,449.1s-10.38-42.65-85.78-28C561.57,421.06,612.75,457.64,647.35,449.1Z" transform="translate(-121.95 -27)"/><path class="cls-11" d="M525.23,490.38" transform="translate(-121.95 -27)"/><path class="cls-12" d="M483.12,523.72c9-117.34,13.51-162.33,13.51-162.33h0s-12.07-12.71-12.86-9.16c0,0-7.88,31.82-2.09,48.7,0,0,3.12-.45,1.45,20.74,0,0-5.31,52.08-1.93,63.65,0,0,3.85,92.42,7.71,94.68" transform="translate(-121.95 -27)"/><path class="cls-12" d="M352.31,334.92s-127.41,144.61-124,148C228.27,482.9,297.93,422.75,352.31,334.92Z" transform="translate(-121.95 -27)"/><path class="cls-2" d="M355.58,212.24s-33-49.53,22.78-63.27c0,0,134.47-40.22,158.73-38.42a5.8,5.8,0,0,1,3.31,1c9,8.29,32-3.28,0,133.67,0,0-6.88,24.11-8.81,27,0,0-11.58,46.77-49.67,61.24,0,0-34.24,31.34-87.28-7.72,0,0-29.18-14.71-41.59-78.72C353.05,247,353.17,221.75,355.58,212.24Z" transform="translate(-121.95 -27)"/><path class="cls-13" d="M387.15,320.23s-14.71-70.41,0-81.66c0,0,20.51-14.62,16.65-34.63l32.73-59.28L378.36,149s-31.94,11.09-29.29,42.31c0,0,10.85,19.92,9.4,32.09L357,235.53S348.81,274.25,387.15,320.23Z" transform="translate(-121.95 -27)"/><path class="cls-1" d="M483.61,244.09s0-10.49-9.77-2.54C473.84,241.55,481,238.66,483.61,244.09Z" transform="translate(-121.95 -27)"/><path class="cls-1" d="M445.75,235.47s7.78-5.55,13.75,1A22.88,22.88,0,0,0,445.75,235.47Z" transform="translate(-121.95 -27)"/><path class="cls-14" d="M457.54,235.79s-1.78,11.64,10.11,12.41c0,0,9-.23,8.9-7.49,0,0-.86-.43-1.15.2,0,0,0,6.48-7.84,5.84,0,0-9.18.69-8.83-10.59A1.21,1.21,0,0,0,457.54,235.79Z" transform="translate(-121.95 -27)"/><path class="cls-1" d="M435.51,224.19s-2.05,13.87,10.24,11.28C445.75,235.47,435.27,238.06,435.51,224.19Z" transform="translate(-121.95 -27)"/><path class="cls-1" d="M497.59,172.84s-21.33,2-11.33,37.43h0s16,37.79-2.65,33.82c0,0,21.64,9,4.55-34.12h0s88.76-43.16,9.43-37.13" transform="translate(-121.95 -27)"/><path class="cls-13" d="M470.11,178.84s.72,37.88-4.1,43.43c0,0-3.1,3.63,2.07,7.72,0,0,10.4,6.74,12.48-4,0,0-.21-5.42-1.83-21.82,0,0-3.69-23.56-2.18-26.73S468.18,176.17,470.11,178.84Z" transform="translate(-121.95 -27)"/><path class="cls-15" d="M544.13,190.2s-14.71-18.81-46.54-17.36l-1.93-14.71s4.34,5.55,4.1,8.44,2.17-3.13-1.44-8.44,3.61,1.93,3.61,3.62-.72-2.17.24-3.38,1.69,1.69,1.21,1.93l2.41-1.93-.72,2.41L515,161l-3.13,1.21s8.68-.24,9.4,1.69,1.69,1,1.69,1l2.89.73s10.37,2.9,13.5,7.6,7,8.07,7.24,13.13a39,39,0,0,1,0,6.51Z" transform="translate(-121.95 -27)"/><path class="cls-15" d="M457.74,160.54l4.17-10.12s-3.76,2.17-4.17,3.61-.41-3.13-1.14-3.61-3.47.6-1.44,1.2-2.77-3.86-3.68-3.62-7.81-4.86-15-3.34-45,2.2-51.29,11.85c0,0-1,2.34,0,2.59,0,0,28.92-4.47,31.1-3.95C416.34,155.15,428.49,155,457.74,160.54Z" transform="translate(-121.95 -27)"/><path class="cls-16" d="M540.4,111.5s26.77,12.88,0,133.67c0,0,7.16-21.34,11.89-17.36,0,0,2.61,3.26,3.49-7.23,0,0,19-47.74,15.71-56.78,0,0,3.62-24.6-4.7-31.83,0,0,5.42-3.25,10.85,2.17,0,0,2.89,6.87,1.45,10.85s6.87-21.7-9.77-21c0,0-8-4.7-7.59-6.51,0,0,9.42.18,9.76-6,0,0-1.42-5.15-1.57-5.07S552.71,108.24,540.4,111.5Z" transform="translate(-121.95 -27)"/><path class="cls-15" d="M574,88.21s-18.08-13.38-23.87-13.38-17.72-8-18.8-8.32-9.77-16.64-24.6-16.64c0,0-11.21-17-26-15.55,0,0-5.06-.72-4.7-3.25,0,0-11.21-10.85-53.52,2.89,0,0-36.89-1.81-64.74,34.72,0,0-19.89,21-28.93,48.82,0,0-14.11,16.28-1.81,51.72l.72,4s15.91-2.53,21.34,18.08c0,0,1.45-10.85,6.87-13.74,0,0,3.26-10.13,9-14.83,0,0,12.3-6.51,13.38-13.74,0,0,50.64,9.4,126.22-30a110.6,110.6,0,0,0,33.28-7.59s36.52,3.25,41.95-16.28C579.81,95.08,584.87,84.23,574,88.21Z" transform="translate(-121.95 -27)"/><path class="cls-4" d="M458.89,193.35c-2.47,16.65-18.82,34.15-40,34-21-.14-38.23-17.42-39.84-36-.07-.79-1.08-15.2,8.07-25.92a28.63,28.63,0,0,1,3.77-3.68c11.78-9.59,26.71-6.54,36.65-4.51,8.42,1.72,20.45,4.18,27.24,14.85C460.11,180.53,459.43,189.67,458.89,193.35Z" transform="translate(-121.95 -27)"/><path class="cls-17" d="M457.39,193.27c-2.38,16-18.11,32.86-38.52,32.73-20.17-.12-36.79-16.76-38.34-34.63-.07-.85-1.29-18.15,11.4-28.48,11.34-9.22,25.69-6.29,35.26-4.34,8.1,1.66,19.68,4,26.22,14.29C458.57,180.93,457.91,189.73,457.39,193.27Z" transform="translate(-121.95 -27)"/><polygon class="cls-4" points="264.56 139.17 257 139.17 236.64 143.19 219.52 150.9 219.82 151.84 237.24 145 257 141.02 263.2 141 264.56 139.17"/><path class="cls-18" d="M458.21,179.81s24.13-9.16,37.3,7.46l.48-2.18c-13.51-15.83-38.25-7.11-38.25-7.11Z" transform="translate(-121.95 -27)"/><path class="cls-4" d="M558.15,213.66c-2.22,16.13-16.93,33.09-36,33-18.85-.13-34.38-16.88-35.83-34.88-.06-.76-1-14.73,7.26-25.11a27,27,0,0,1,3.39-3.57c10.59-9.29,24-6.34,32.95-4.37,7.58,1.67,18.39,4.05,24.51,14.39C559.25,201.23,558.64,210.08,558.15,213.66Z" transform="translate(-121.95 -27)"/><path class="cls-17" d="M557.43,213.59c-2.15,15.61-16.41,32-34.91,31.88-18.28-.13-33.35-16.32-34.76-33.73-.06-.74-.94-14.24,7-24.28a26,26,0,0,1,3.29-3.45c10.28-9,23.3-6.13,32-4.23,7.34,1.62,17.84,3.92,23.77,13.92C558.5,201.58,557.91,210.14,557.43,213.59Z" transform="translate(-121.95 -27)"/><path class="cls-2" d="M327.73,173.2S306.15,190,325.2,218.65c0,0,11.57,46.77,27.85,28.33,0,0,1.08-34,2.53-34.74l-6.51-21S348,160.9,327.73,173.2Z" transform="translate(-121.95 -27)"/><path class="cls-1" d="M336.77,180.43s-24.23-9.76-10.85,31.11c0,0,.73,2.17.73-5.07C326.65,206.47,327,185.86,336.77,180.43Z" transform="translate(-121.95 -27)"/><path class="cls-1" d="M344.37,198.52s-24.23,1.08-10.85,24.95c0,0,9.4-6.15,15.91,0,0,0-9.4-7.59-3.25-18.08Z" transform="translate(-121.95 -27)"/><g class="cls-19"><path class="cls-4" d="M346.78,244a.6.6,0,0,0,0-1.2.6.6,0,0,0,0,1.2Z" transform="translate(-121.95 -27)"/></g><path class="cls-14" d="M345.87,243.36s-2.11,19.17,3.56,6.74h0l-1.32.87s-2.24,5.17-.49-7.61Z" transform="translate(-121.95 -27)"/><g class="cls-19"><path class="cls-4" d="M341.47,242.8a.6.6,0,0,0,0-1.2.6.6,0,0,0,0,1.2Z" transform="translate(-121.95 -27)"/></g><path class="cls-14" d="M340.58,242s-6.84,19.36,1.37,8.44h0l-.82-.53s-3.29,4.57,1.16-7.53Z" transform="translate(-121.95 -27)"/><g class="cls-19"><path class="cls-4" d="M337.62,239.74a.6.6,0,0,0,0-1.2.6.6,0,0,0,0,1.2Z" transform="translate(-121.95 -27)"/></g><g class="cls-19"><path class="cls-4" d="M334.12,235.4a.6.6,0,0,0,0-1.2.6.6,0,0,0,0,1.2Z" transform="translate(-121.95 -27)"/></g><path class="cls-14" d="M333.2,234.43s-7.19,18.79,1.17,8c.25-.33.08-.13.08-.13l-.33-.78s-6.09,7.33.72-6.46Z" transform="translate(-121.95 -27)"/><path class="cls-14" d="M336.69,238.8s-7.47,18.81,1.12,8.19h0l-.5-.59s-3.81,4.77,1.08-7.17Z" transform="translate(-121.95 -27)"/><path class="cls-13" d="M339.46,175.58s2,2.32-1.07,2.32c0,0-26.54-5.42-12.47,33.64,0,0-.09,3.28-3.13.3C322.79,211.84,309.6,172.93,339.46,175.58Z" transform="translate(-121.95 -27)"/><path class="cls-13" d="M334.59,231.26s-.44-11,6.1-6.83c0,0,4.59,5.86,8.29,5.37,0,0,.73-.16,1-1.46,0,0,1.16-1.31,1.16.32a7.82,7.82,0,0,1-5.23,8.29s-2.47-2.76-4.22-1.46C341.71,235.49,336.19,236.3,334.59,231.26Z" transform="translate(-121.95 -27)"/><path class="cls-4" d="M403.8,257s55.46-.86,93.79,17.36c0,0-6.75,9.88-15.43,8.92,0,0-58.11-3.38-58.83-5.79C423.33,277.48,408.38,274.1,403.8,257Z" transform="translate(-121.95 -27)"/><path class="cls-20" d="M403.8,257v1.68s7.79,15.55,14.75,13.2c0,0,68.58,7.84,71.88-.15C490.43,271.72,446,252.16,403.8,257Z" transform="translate(-121.95 -27)"/><path class="cls-21" d="M486.23,278.86s-.36,3.73-33.27,0c0,0-28.94-1.69-42.44-13,0,0-3.62-2,0-3.14,0,0,16.08-5.23,44.61,5.79,0,0,9.16-1.21,33,4.82A19,19,0,0,1,486.23,278.86Z" transform="translate(-121.95 -27)"/><path class="cls-22" d="M403.8,257s34.24-9.65,53.53,2.65H459s22.91-1.69,38.58,14.71c0,0-3-1.18-7.16-2.63-7.15-2.46-17.8-5.7-23-5.09,0,0-15.91-1.21-27.24-6C440.21,260.6,422.61,255.3,403.8,257Z" transform="translate(-121.95 -27)"/><path class="cls-22" d="M497.59,274.35s-15.19,24.11-49.43,14c0,0-40.74-4.1-44.36-29.66,0,0,8.68,13.42,22.18,15.68,0,0,13.75,4.34,24.72,5.31,0,0,10.48.71,16.27,1.2C467,280.86,489.88,283.75,497.59,274.35Z" transform="translate(-121.95 -27)"/><path class="cls-23" d="M480,92.79s73.3,24.11,101.27,0C581.26,92.79,528.21,112.08,480,92.79Z" transform="translate(-121.95 -27)"/><path class="cls-16" d="M514.71,115S483.85,129.55,425,98.15C425,98.15,472.28,121.72,514.71,115Z" transform="translate(-121.95 -27)"/><path class="cls-24" d="M431.77,90.86s71.93,28.05,101.75,17.39C533.52,108.25,515.19,114.49,431.77,90.86Z" transform="translate(-121.95 -27)"/><path class="cls-23" d="M486.26,38.3c.48,0-92.59-7.72-127.31,45.81C359,84.11,390.78,41.19,486.26,38.3Z" transform="translate(-121.95 -27)"/><path class="cls-24" d="M363.78,69.16s-44.37,42-28.45,91.14C335.33,160.3,321.34,120.28,363.78,69.16Z" transform="translate(-121.95 -27)"/><path class="cls-16" d="M500.24,55.66S427.91,36.85,389.33,79.29C389.33,79.29,416.82,43.6,500.24,55.66Z" transform="translate(-121.95 -27)"/><path class="cls-24" d="M380.17,100.76S411,138.6,469.86,127C469.86,127,424.05,139.12,380.17,100.76Z" transform="translate(-121.95 -27)"/><path class="cls-24" d="M367.86,129.12c-2.22,1.92,56.83,8.88,83.94,5.46C451.8,134.58,398.75,140.53,367.86,129.12Z" transform="translate(-121.95 -27)"/><path class="cls-16" d="M363.78,96.17s-22.67,20.25-21.7,56.42C342.08,152.59,345.45,117.38,363.78,96.17Z" transform="translate(-121.95 -27)"/><path class="cls-24" d="M345.87,151s34.45-1.85,49.76-5.9c1-.27,2-.56,2.81-.85C411.79,139.58,378.18,155.8,345.87,151Z" transform="translate(-121.95 -27)"/><path class="cls-24" d="M525.32,69.16s-69.92-20.73-136,21.7C389.33,90.86,444.31,56.14,525.32,69.16Z" transform="translate(-121.95 -27)"/><path class="cls-16" d="M555.78,84.11s-16.73,11.61-96.52-4.82C459.26,79.29,528.38,100.51,555.78,84.11Z" transform="translate(-121.95 -27)"/><path class="cls-24" d="M546.64,111.51s21.23,43.73,7.19,82.19C553.83,193.7,571.34,151.93,546.64,111.51Z" transform="translate(-121.95 -27)"/><path class="cls-24" d="M553.25,111.51s2.45,9.25,10.65,12.87C563.9,124.38,554.45,123.44,553.25,111.51Z" transform="translate(-121.95 -27)"/><path class="cls-24" d="M558.57,129.12s13.28,34-.1,65.15C558.47,194.27,575.06,157.52,558.57,129.12Z" transform="translate(-121.95 -27)"/><path class="cls-24" d="M559.85,117.14s14.2-3,15.83,4.83.87,4.81.87,4.81S573.14,118.05,559.85,117.14Z" transform="translate(-121.95 -27)"/><path class="cls-24" d="M567,136s11.6,4,12.94,13A35,35,0,0,0,567,136Z" transform="translate(-121.95 -27)"/><path class="cls-24" d="M570.45,131s3,6.38,12.8,2.76C583.25,133.78,574.65,141.45,570.45,131Z" transform="translate(-121.95 -27)"/><path class="cls-23" d="M469.86,113.15S439,127.72,380.17,96.32C380.17,96.32,427.43,119.9,469.86,113.15Z" transform="translate(-121.95 -27)"/><path class="cls-16" d="M517.67,94.3S486.81,108.88,428,77.48C428,77.48,475.24,101.05,517.67,94.3Z" transform="translate(-121.95 -27)"/><path class="cls-16" d="M444.79,128.69s-30.86,14.57-89.69-16.83C355.1,111.86,402.35,135.44,444.79,128.69Z" transform="translate(-121.95 -27)"/><path class="cls-24" d="M495.66,123.25S464.8,137.82,406,106.43C406,106.43,453.23,130,495.66,123.25Z" transform="translate(-121.95 -27)"/><path class="cls-24" d="M384.52,72.55S361.86,92.81,362.82,129C362.82,129,366.2,93.77,384.52,72.55Z" transform="translate(-121.95 -27)"/><path class="cls-24" d="M528.28,62.82S456,44,417.37,86.45C417.37,86.45,444.86,50.76,528.28,62.82Z" transform="translate(-121.95 -27)"/><path class="cls-23" d="M536.77,99.58s-52.86,14.57-153.64-16.82C383.13,82.76,464.08,106.33,536.77,99.58Z" transform="translate(-121.95 -27)"/><path class="cls-24" d="M366,116.45s-22.66,20.25-21.7,56.42C344.26,172.87,347.64,137.67,366,116.45Z" transform="translate(-121.95 -27)"/></svg>